<svg xmlns="http://www.w3.org/2000/svg" style="margin:auto;background:rgba(NaN, NaN, NaN, 0);display:block;" width="800" height="90" preserveAspectRatio="xMidYMid">
<style type="text/css">
  text {
    text-anchor: middle; font-size: 80px; opacity: 0;
  }
</style>
<g style="transform-origin:400px 45px;transform:scale(1)">
<g transform="translate(400,45)">
  <g transform="translate(0,0)"><g class="path" style="transform: scale(0.91); transform-origin: -323.6px 4.41256px; animation: 1s linear -0.627s infinite normal forwards running breath-42f780a4-4c1d-46f6-8618-06b5235d5b9e;"><path d="M45.44-21.20L45.44-21.20L45.44-21.20Q43.76-22.88 43.76-25.28L43.76-25.28L43.76-25.28Q43.76-27.68 45.44-29.40L45.44-29.40L45.44-29.40Q47.12-31.12 49.24-31.12L49.24-31.12L49.24-31.12Q51.36-31.12 52.84-30.04L52.84-30.04L52.84-30.04Q54.32-28.96 54.96-27.28L54.96-27.28L54.96-27.28Q55.04-27.20 55.04-27.12L55.04-27.12L55.04-27.04L55.04-27.04Q56-24.96 56-21.32L56-21.32L56-21.32Q56-17.68 55.52-15.12L55.52-15.12L55.52-15.12Q55.04-12.56 53.76-9.68L53.76-9.68L53.76-9.68Q52.48-6.80 50.64-4.52L50.64-4.52L50.64-4.52Q48.80-2.24 45.72-0.76L45.72-0.76L45.72-0.76Q42.64 0.72 38.88 0.72L38.88 0.72L38.88 0.72Q32.48 0.72 29.28-3.92L29.28-3.92L29.28-3.92Q25.44 0.72 18.80 0.72L18.80 0.72L18.80 0.72Q13.68 0.72 10.44-2.48L10.44-2.48L10.44-2.48Q7.20-5.68 7.20-9.84L7.20-9.84L7.20-9.84Q7.20-14 8.68-20.12L8.68-20.12L8.68-20.12Q10.16-26.24 10.32-29.52L10.32-29.52L10.32-29.52Q9.04-29.44 7.84-28.60L7.84-28.60L7.84-28.60Q6.64-27.76 6.08-26.96L6.08-26.96L5.52-26.16L4.32-27.12L4.32-27.12Q4.56-27.60 5.04-28.24L5.04-28.24L5.04-28.24Q5.52-28.88 7.48-30L7.48-30L7.48-30Q9.44-31.12 12.40-31.12L12.40-31.12L12.40-31.12Q15.36-31.12 17.16-29.20L17.16-29.20L17.16-29.20Q18.96-27.28 18.96-24.32L18.96-24.32L18.96-24.32Q18.96-21.36 17.36-15.16L17.36-15.16L17.36-15.16Q15.76-8.96 15.76-6.44L15.76-6.44L15.76-6.44Q15.76-3.92 16.92-2.48L16.92-2.48L16.92-2.48Q18.08-1.04 20.24-1.04L20.24-1.04L20.24-1.04Q24.88-1.04 28.16-5.84L28.16-5.84L28.16-5.84Q27.28-8.08 27.28-11.04L27.28-11.04L27.28-11.04Q27.28-14 28.76-20.12L28.76-20.12L28.76-20.12Q30.24-26.24 30.40-29.52L30.40-29.52L30.40-29.52Q29.12-29.44 27.92-28.60L27.92-28.60L27.92-28.60Q26.72-27.76 26.16-26.96L26.16-26.96L25.60-26.16L24.40-27.12L24.40-27.12Q24.64-27.60 25.12-28.24L25.12-28.24L25.12-28.24Q25.60-28.88 27.56-30L27.56-30L27.56-30Q29.52-31.12 32.48-31.12L32.48-31.12L32.48-31.12Q35.44-31.12 37.24-29.20L37.24-29.20L37.24-29.20Q39.04-27.28 39.04-24.32L39.04-24.32L39.04-24.32Q39.04-21.36 37.44-15.16L37.44-15.16L37.44-15.16Q35.84-8.96 35.84-6.44L35.84-6.44L35.84-6.44Q35.84-3.92 37-2.48L37-2.48L37-2.48Q38.16-1.04 40.32-1.04L40.32-1.04L40.32-1.04Q45.68-1.04 49.92-6.84L49.92-6.84L49.92-6.84Q54.16-12.64 54.16-19.92L54.16-19.92L54.16-19.92Q54.16-20.48 54-21.60L54-21.60L54-21.60Q52.32-19.52 49.72-19.52L49.72-19.52L49.72-19.52Q47.12-19.52 45.44-21.20" fill="#51cacc" stroke="none" stroke-width="none" transform="translate(-353.76007080078125,19.612559234619134)" style="fill: rgb(81, 202, 204);"></path></g><g class="path" style="transform: scale(0.91); transform-origin: -280.16px 4.41256px; animation: 1s linear -0.594s infinite normal forwards running breath-42f780a4-4c1d-46f6-8618-06b5235d5b9e;"><path d="M77.12-31.12L77.12-31.12L77.12-31.12Q87.28-31.12 87.28-23.04L87.28-23.04L87.28-23.04Q87.28-18 82.52-15.40L82.52-15.40L82.52-15.40Q77.76-12.80 68.96-12.72L68.96-12.72L68.96-12.72Q68.80-9.84 68.80-8.16L68.80-8.16L68.80-8.16Q68.80-4.56 70.44-2.84L70.44-2.84L70.44-2.84Q72.08-1.12 74.56-1.12L74.56-1.12L74.56-1.12Q77.04-1.12 79.08-2.08L79.08-2.08L79.08-2.08Q81.12-3.04 82.32-4.36L82.32-4.36L82.32-4.36Q83.52-5.68 84.40-7.12L84.40-7.12L84.40-7.12Q86-9.76 86-10.48L86-10.48L87.44-9.84L87.44-9.84Q87.20-8.56 86-6.44L86-6.44L86-6.44Q84.80-4.32 83.36-2.96L83.36-2.96L83.36-2.96Q81.92-1.60 79.12-0.44L79.12-0.44L79.12-0.44Q76.32 0.72 72.88 0.72L72.88 0.72L72.88 0.72Q66.40 0.72 63.08-2.36L63.08-2.36L63.08-2.36Q59.76-5.44 59.76-10.80L59.76-10.80L59.76-10.80Q59.76-20.32 64.48-25.72L64.48-25.72L64.48-25.72Q69.20-31.12 77.12-31.12zM85.28-23.04L85.28-23.04Q85.28-25.68 83.72-27.40L83.72-27.40L83.72-27.40Q82.16-29.12 79.08-29.12L79.08-29.12L79.08-29.12Q76-29.12 73.08-25.44L73.08-25.44L73.08-25.44Q70.16-21.76 69.20-14.56L69.20-14.56L69.20-14.56Q85.28-14.64 85.28-23.04L85.28-23.04" fill="#51cacc" stroke="none" stroke-width="none" transform="translate(-353.76007080078125,19.612559234619134)" style="fill: rgb(157, 248, 113);"></path></g><g class="path" style="transform: scale(0.91); transform-origin: -250.6px -5.94744px; animation: 1s linear -0.561s infinite normal forwards running breath-42f780a4-4c1d-46f6-8618-06b5235d5b9e;"><path d="M106.24-2.88L106.24-2.88L106.24-2.88Q105.20-1.52 103.40-0.40L103.40-0.40L103.40-0.40Q101.60 0.72 98.72 0.72L98.72 0.72L98.72 0.72Q95.84 0.72 93.84-1.12L93.84-1.12L93.84-1.12Q91.84-2.96 91.84-6.32L91.84-6.32L91.84-6.32Q91.84-6.96 92.00-8.40L92.00-8.40L97.20-37.20L97.20-37.20Q98.64-45.12 101.16-48.48L101.16-48.48L101.16-48.48Q103.68-51.84 107.84-51.84L107.84-51.84L107.84-51.84Q110.72-51.84 112.60-49.68L112.60-49.68L112.60-49.68Q114.48-47.52 114.48-43.12L114.48-43.12L114.48-43.12Q114.48-38.72 111.08-30.56L111.08-30.56L111.08-30.56Q107.68-22.40 107.68-18.64L107.68-18.64L106.24-18.64L106.24-18.64Q106.24-22.88 109.60-30.76L109.60-30.76L109.60-30.76Q112.96-38.64 112.96-43.36L112.96-43.36L112.96-43.36Q112.96-46.24 111.64-48.32L111.64-48.32L111.64-48.32Q110.32-50.40 108.40-50.40L108.40-50.40L108.40-50.40Q108.32-48.32 105.64-31.72L105.64-31.72L105.64-31.72Q102.96-15.12 100.32-0.88L100.32-0.88L100.32-0.88Q102.56-0.88 104.48-3.20L104.48-3.20L104.48-3.20Q106.40-5.52 107.20-7.84L107.20-7.84L108.08-10.24L109.52-9.60L109.52-9.60Q109.28-8.48 108.28-6.36L108.28-6.36L108.28-6.36Q107.28-4.24 106.24-2.88" fill="#51cacc" stroke="none" stroke-width="none" transform="translate(-353.76007080078125,19.612559234619134)" style="fill: rgb(224, 255, 119);"></path></g><g class="path" style="transform: scale(0.91); transform-origin: -225.44px 4.41256px; animation: 1s linear -0.528s infinite normal forwards running breath-42f780a4-4c1d-46f6-8618-06b5235d5b9e;"><path d="M133.12-16.72L133.12-16.72L133.12-16.72Q131.44-18.40 131.44-20.80L131.44-20.80L131.44-20.80Q131.44-23.20 133.12-24.92L133.12-24.92L133.12-24.92Q134.80-26.64 137.20-26.64L137.20-26.64L137.20-26.64Q137.92-26.64 139.04-26.32L139.04-26.32L139.04-26.32Q137.52-29.12 133.36-29.12L133.36-29.12L133.36-29.12Q129.20-29.12 126-23.84L126-23.84L126-23.84Q122.80-18.56 122.80-8.16L122.80-8.16L122.80-8.16Q122.80-4.56 124.44-2.84L124.44-2.84L124.44-2.84Q126.08-1.12 128.56-1.12L128.56-1.12L128.56-1.12Q131.04-1.12 133.08-2.08L133.08-2.08L133.08-2.08Q135.12-3.04 136.32-4.36L136.32-4.36L136.32-4.36Q137.52-5.68 138.40-7.12L138.40-7.12L138.40-7.12Q140-9.76 140-10.48L140-10.48L141.44-9.84L141.44-9.84Q141.20-8.56 140-6.44L140-6.44L140-6.44Q138.80-4.32 137.36-2.96L137.36-2.96L137.36-2.96Q135.92-1.60 133.12-0.44L133.12-0.44L133.12-0.44Q130.32 0.72 126.88 0.72L126.88 0.72L126.88 0.72Q120.40 0.72 117.08-2.36L117.08-2.36L117.08-2.36Q113.76-5.44 113.76-10.80L113.76-10.80L113.76-10.80Q113.76-20.32 118.52-25.72L118.52-25.72L118.52-25.72Q123.28-31.12 131.44-31.12L131.44-31.12L131.44-31.12Q136.96-31.12 139.92-28.32L139.92-28.32L139.92-28.32Q142.88-25.52 142.88-20.96L142.88-20.96L142.88-20.96Q142.88-18.08 141.16-16.56L141.16-16.56L141.16-16.56Q139.44-15.04 137.12-15.04L137.12-15.04L137.12-15.04Q134.80-15.04 133.12-16.72" fill="#51cacc" stroke="none" stroke-width="none" transform="translate(-353.76007080078125,19.612559234619134)" style="fill: rgb(222, 157, 214);"></path></g><g class="path" style="transform: scale(0.91); transform-origin: -191.84px 4.41256px; animation: 1s linear -0.495s infinite normal forwards running breath-42f780a4-4c1d-46f6-8618-06b5235d5b9e;"><path d="M158.80 0.72L158.80 0.72Q152.64 0.72 149.44-2.36L149.44-2.36L149.44-2.36Q146.24-5.44 146.24-10.12L146.24-10.12L146.24-10.12Q146.24-14.80 147.08-18.12L147.08-18.12L147.08-18.12Q147.92-21.44 149.84-24.52L149.84-24.52L149.84-24.52Q151.76-27.60 155.64-29.36L155.64-29.36L155.64-29.36Q159.52-31.12 165.32-31.12L165.32-31.12L165.32-31.12Q171.12-31.12 174.36-28.04L174.36-28.04L174.36-28.04Q177.60-24.96 177.60-19.60L177.60-19.60L177.60-19.60Q177.60-10.48 172.76-4.88L172.76-4.88L172.76-4.88Q167.92 0.72 158.80 0.72L158.80 0.72zM155.28-7.52L155.28-7.52L155.28-7.52Q155.28-1.12 159-1.12L159-1.12L159-1.12Q162.72-1.12 165.64-7.56L165.64-7.56L165.64-7.56Q168.56-14 168.56-22.88L168.56-22.88L168.56-22.88Q168.56-29.60 164.92-29.60L164.92-29.60L164.92-29.60Q161.28-29.60 158.28-23.48L158.28-23.48L158.28-23.48Q155.28-17.36 155.28-7.52" fill="#51cacc" stroke="none" stroke-width="none" transform="translate(-353.76007080078125,19.612559234619134)" style="fill: rgb(255, 112, 142);"></path></g><g class="path" style="transform: scale(0.91); transform-origin: -144.08px 4.41256px; animation: 1s linear -0.462s infinite normal forwards running breath-42f780a4-4c1d-46f6-8618-06b5235d5b9e;"><path d="M212-0.88L212-0.88L212-0.88Q213.92-0.88 216-3.12L216-3.12L217.20-2.16L217.20-2.16Q216.64-1.04 214.72-0.16L214.72-0.16L214.72-0.16Q212.80 0.72 210.48 0.72L210.48 0.72L210.48 0.72Q203.20 0.72 203.20-5.84L203.20-5.84L203.20-5.84Q203.20-8.64 204.64-15.84L204.64-15.84L204.64-15.84Q206.08-23.04 206.08-25.28L206.08-25.28L206.08-25.28Q206.08-28.72 202.80-28.72L202.80-28.72L202.80-28.72Q197.84-28.72 194.48-16L194.48-16L191.60 0L182 0L187.28-29.52L187.28-29.52Q184.88-29.28 183.28-27.28L183.28-27.28L182.08-28.24L182.08-28.24Q184.48-31.12 188.12-31.12L188.12-31.12L188.12-31.12Q191.76-31.12 193.76-29.28L193.76-29.28L193.76-29.28Q195.76-27.44 195.76-24.08L195.76-24.08L195.76-23.84L195.76-23.84Q198.88-31.12 205.20-31.12L205.20-31.12L205.20-31.12Q209.68-31.12 212.28-28.68L212.28-28.68L212.28-28.68Q214.88-26.24 215.12-21.84L215.12-21.84L215.12-21.84Q216.64-26.24 218.96-28.68L218.96-28.68L218.96-28.68Q221.28-31.12 225.68-31.12L225.68-31.12L225.68-31.12Q230.08-31.12 232.72-28.44L232.72-28.44L232.72-28.44Q235.36-25.76 235.36-21.04L235.36-21.04L235.36-21.04Q235.36-18.56 233.84-11.48L233.84-11.48L233.84-11.48Q232.32-4.40 232.16-0.88L232.16-0.88L232.16-0.88Q234.08-0.88 236.16-3.12L236.16-3.12L237.36-2.16L237.36-2.16Q236.80-1.04 234.88-0.16L234.88-0.16L234.88-0.16Q232.96 0.72 230.64 0.72L230.64 0.72L230.64 0.72Q223.36 0.72 223.36-5.84L223.36-5.84L223.36-5.84Q223.36-8.64 224.80-15.84L224.80-15.84L224.80-15.84Q226.24-23.04 226.24-25.28L226.24-25.28L226.24-25.28Q226.24-28.72 222.96-28.72L222.96-28.72L222.96-28.72Q217.20-28.72 213.68-11.60L213.68-11.60L213.68-11.60Q212.16-4.32 212-0.88" fill="#51cacc" stroke="none" stroke-width="none" transform="translate(-353.76007080078125,19.612559234619134)" style="fill: rgb(81, 202, 204);"></path></g><g class="path" style="transform: scale(0.91); transform-origin: -98.8801px 4.41256px; animation: 1s linear -0.429s infinite normal forwards running breath-42f780a4-4c1d-46f6-8618-06b5235d5b9e;"><path d="M258.40-31.12L258.40-31.12L258.40-31.12Q268.56-31.12 268.56-23.04L268.56-23.04L268.56-23.04Q268.56-18 263.80-15.40L263.80-15.40L263.80-15.40Q259.04-12.80 250.24-12.72L250.24-12.72L250.24-12.72Q250.08-9.84 250.08-8.16L250.08-8.16L250.08-8.16Q250.08-4.56 251.72-2.84L251.72-2.84L251.72-2.84Q253.36-1.12 255.84-1.12L255.84-1.12L255.84-1.12Q258.32-1.12 260.36-2.08L260.36-2.08L260.36-2.08Q262.40-3.04 263.60-4.36L263.60-4.36L263.60-4.36Q264.80-5.68 265.68-7.12L265.68-7.12L265.68-7.12Q267.28-9.76 267.28-10.48L267.28-10.48L268.72-9.84L268.72-9.84Q268.48-8.56 267.28-6.44L267.28-6.44L267.28-6.44Q266.08-4.32 264.64-2.96L264.64-2.96L264.64-2.96Q263.20-1.60 260.40-0.44L260.40-0.44L260.40-0.44Q257.60 0.72 254.16 0.72L254.16 0.72L254.16 0.72Q247.68 0.72 244.36-2.36L244.36-2.36L244.36-2.36Q241.04-5.44 241.04-10.80L241.04-10.80L241.04-10.80Q241.04-20.32 245.76-25.72L245.76-25.72L245.76-25.72Q250.48-31.12 258.40-31.12zM266.56-23.04L266.56-23.04Q266.56-25.68 265-27.40L265-27.40L265-27.40Q263.44-29.12 260.36-29.12L260.36-29.12L260.36-29.12Q257.28-29.12 254.36-25.44L254.36-25.44L254.36-25.44Q251.44-21.76 250.48-14.56L250.48-14.56L250.48-14.56Q266.56-14.64 266.56-23.04L266.56-23.04" fill="#51cacc" stroke="none" stroke-width="none" transform="translate(-353.76007080078125,19.612559234619134)" style="fill: rgb(157, 248, 113);"></path></g><g class="path" style="transform: scale(0.91); transform-origin: -51.2801px -1.50744px; animation: 1s linear -0.396s infinite normal forwards running breath-42f780a4-4c1d-46f6-8618-06b5235d5b9e;"><path d="M290.80-30.40L294.88-30.40L297.04-42.24L297.04-42.24Q302.96-42.24 305.84-42.72L305.84-42.72L306.88-42.96L306.88-42.96Q305.76-37.36 304.40-30.40L304.40-30.40L314.32-30.40L314.16-28.96L304.16-28.96L304.16-28.96Q300.16-8.32 300.16-4.08L300.16-4.08L300.16-4.08Q300.16-1.52 302.88-1.52L302.88-1.52L302.88-1.52Q305.60-1.52 307.84-4.96L307.84-4.96L307.84-4.96Q310.08-8.40 311.04-12.40L311.04-12.40L312.48-11.92L312.48-11.92Q309.52 0.72 300.24 0.72L300.24 0.72L300.24 0.72Q296.40 0.72 293.84-1.40L293.84-1.40L293.84-1.40Q291.28-3.52 291.28-7.32L291.28-7.32L291.28-7.32Q291.28-11.12 294.56-28.96L294.56-28.96L290.64-28.96L290.80-30.40" fill="#51cacc" stroke="none" stroke-width="none" transform="translate(-353.76007080078125,19.612559234619134)" style="fill: rgb(224, 255, 119);"></path></g><g class="path" style="transform: scale(0.91); transform-origin: -22.4001px 4.41256px; animation: 1s linear -0.363s infinite normal forwards running breath-42f780a4-4c1d-46f6-8618-06b5235d5b9e;"><path d="M328.24 0.72L328.24 0.72Q322.08 0.72 318.88-2.36L318.88-2.36L318.88-2.36Q315.68-5.44 315.68-10.12L315.68-10.12L315.68-10.12Q315.68-14.80 316.52-18.12L316.52-18.12L316.52-18.12Q317.36-21.44 319.28-24.52L319.28-24.52L319.28-24.52Q321.20-27.60 325.08-29.36L325.08-29.36L325.08-29.36Q328.96-31.12 334.76-31.12L334.76-31.12L334.76-31.12Q340.56-31.12 343.80-28.04L343.80-28.04L343.80-28.04Q347.04-24.96 347.04-19.60L347.04-19.60L347.04-19.60Q347.04-10.48 342.20-4.88L342.20-4.88L342.20-4.88Q337.36 0.72 328.24 0.72L328.24 0.72zM324.72-7.52L324.72-7.52L324.72-7.52Q324.72-1.12 328.44-1.12L328.44-1.12L328.44-1.12Q332.16-1.12 335.08-7.56L335.08-7.56L335.08-7.56Q338.00-14 338.00-22.88L338.00-22.88L338.00-22.88Q338.00-29.60 334.36-29.60L334.36-29.60L334.36-29.60Q330.72-29.60 327.72-23.48L327.72-23.48L327.72-23.48Q324.72-17.36 324.72-7.52" fill="#51cacc" stroke="none" stroke-width="none" transform="translate(-353.76007080078125,19.612559234619134)" style="fill: rgb(222, 157, 214);"></path></g><g class="path" style="transform: scale(0.91); transform-origin: 42.3999px 4.41256px; animation: 1s linear -0.33s infinite normal forwards running breath-42f780a4-4c1d-46f6-8618-06b5235d5b9e;"><path d="M398.48-0.88L398.48-0.88L398.48-0.88Q400.40-0.88 402.48-3.12L402.48-3.12L403.68-2.16L403.68-2.16Q403.12-1.04 401.20-0.16L401.20-0.16L401.20-0.16Q399.28 0.72 396.96 0.72L396.96 0.72L396.96 0.72Q389.68 0.72 389.68-5.84L389.68-5.84L389.68-5.84Q389.68-8.64 391.12-15.84L391.12-15.84L391.12-15.84Q392.56-23.04 392.56-25.28L392.56-25.28L392.56-25.28Q392.56-28.72 389.28-28.72L389.28-28.72L389.28-28.72Q384.32-28.72 380.96-16L380.96-16L378.08 0L368.48 0L373.76-29.52L373.76-29.52Q371.36-29.28 369.76-27.28L369.76-27.28L368.56-28.24L368.56-28.24Q370.96-31.12 374.60-31.12L374.60-31.12L374.60-31.12Q378.24-31.12 380.24-29.28L380.24-29.28L380.24-29.28Q382.24-27.44 382.24-24.08L382.24-24.08L382.24-23.84L382.24-23.84Q385.36-31.12 391.68-31.12L391.68-31.12L391.68-31.12Q396.16-31.12 398.76-28.68L398.76-28.68L398.76-28.68Q401.36-26.24 401.60-21.84L401.60-21.84L401.60-21.84Q403.12-26.24 405.44-28.68L405.44-28.68L405.44-28.68Q407.76-31.12 412.16-31.12L412.16-31.12L412.16-31.12Q416.56-31.12 419.20-28.44L419.20-28.44L419.20-28.44Q421.84-25.76 421.84-21.04L421.84-21.04L421.84-21.04Q421.84-18.56 420.32-11.48L420.32-11.48L420.32-11.48Q418.80-4.40 418.64-0.88L418.64-0.88L418.64-0.88Q420.56-0.88 422.64-3.12L422.64-3.12L423.84-2.16L423.84-2.16Q423.28-1.04 421.36-0.16L421.36-0.16L421.36-0.16Q419.44 0.72 417.12 0.72L417.12 0.72L417.12 0.72Q409.84 0.72 409.84-5.84L409.84-5.84L409.84-5.84Q409.84-8.64 411.28-15.84L411.28-15.84L411.28-15.84Q412.72-23.04 412.72-25.28L412.72-25.28L412.72-25.28Q412.72-28.72 409.44-28.72L409.44-28.72L409.44-28.72Q403.68-28.72 400.16-11.60L400.16-11.60L400.16-11.60Q398.64-4.32 398.48-0.88" fill="#51cacc" stroke="none" stroke-width="none" transform="translate(-353.76007080078125,19.612559234619134)" style="fill: rgb(255, 112, 142);"></path></g><g class="path" style="transform: scale(0.91); transform-origin: 91.4399px 11.4126px; animation: 1s linear -0.297s infinite normal forwards running breath-42f780a4-4c1d-46f6-8618-06b5235d5b9e;"><path d="M432.56-29.52L432.56-29.52L432.56-29.52Q430.64-29.52 428.56-27.28L428.56-27.28L427.36-28.24L427.36-28.24Q427.92-29.36 429.84-30.24L429.84-30.24L429.84-30.24Q431.76-31.12 434.08-31.12L434.08-31.12L434.08-31.12Q441.36-31.12 441.36-24.56L441.36-24.56L441.36-24.56Q441.36-21.76 439.84-15.40L439.84-15.40L439.84-15.40Q438.32-9.04 438.32-6.80L438.32-6.80L438.32-6.80Q438.32-2.96 441.52-2.96L441.52-2.96L441.52-2.96Q444.16-2.96 446.68-6.56L446.68-6.56L446.68-6.56Q449.20-10.16 450.80-16.24L450.80-16.24L453.44-30.40L453.44-30.40Q459.36-30.40 462.08-30.88L462.08-30.88L463.12-31.12L458.08-2.80L458.08-2.80Q456.64 5.44 451.40 10.08L451.40 10.08L451.40 10.08Q446.16 14.72 437.84 14.72L437.84 14.72L437.84 14.72Q432.80 14.72 430.04 13L430.04 13L430.04 13Q427.28 11.28 427.28 8.52L427.28 8.52L427.28 8.52Q427.28 5.76 428.96 4.12L428.96 4.12L428.96 4.12Q430.64 2.48 433.72 2.48L433.72 2.48L433.72 2.48Q436.80 2.48 439.44 3.48L439.44 3.48L439.44 3.48Q442.08 4.48 443.28 4.64L443.28 4.64L443.12 6.08L443.12 6.08Q441.76 5.92 439.20 4.96L439.20 4.96L439.20 4.96Q436.64 4 434.12 4L434.12 4L434.12 4Q431.60 4 430.28 5.12L430.28 5.12L430.28 5.12Q428.96 6.24 428.96 8.36L428.96 8.36L428.96 8.36Q428.96 10.48 431.28 11.80L431.28 11.80L431.28 11.80Q433.60 13.12 437.04 13.12L437.04 13.12L437.04 13.12Q445.36 13.12 447.28 3.12L447.28 3.12L449.28-7.92L449.28-7.92Q445.92-0.56 439.12-0.56L439.12-0.56L439.12-0.56Q434.48-0.56 431.96-3.20L431.96-3.20L431.96-3.20Q429.44-5.84 429.44-10.64L429.44-10.64L429.44-10.64Q429.44-13.12 430.92-19.56L430.92-19.56L430.92-19.56Q432.40-26 432.56-29.52" fill="#51cacc" stroke="none" stroke-width="none" transform="translate(-353.76007080078125,19.612559234619134)" style="fill: rgb(81, 202, 204);"></path></g><g class="path" style="transform: scale(0.91); transform-origin: 145.68px 11.4126px; animation: 1s linear -0.264s infinite normal forwards running breath-42f780a4-4c1d-46f6-8618-06b5235d5b9e;"><path d="M509.60 8.72L509.60 8.72L509.60 8.72Q512.48 8.72 514.56 6.48L514.56 6.48L515.68 7.44L515.68 7.44Q513.76 10.16 509.60 10.16L509.60 10.16L509.60 10.16Q507.84 10.16 506.00 9.76L506.00 9.76L506.00 9.76Q500.56 14.72 492.08 14.72L492.08 14.72L492.08 14.72Q487.04 14.72 484.28 13L484.28 13L484.28 13Q481.52 11.28 481.52 8.52L481.52 8.52L481.52 8.52Q481.52 5.76 483.24 4.12L483.24 4.12L483.24 4.12Q484.96 2.48 489.36 2.48L489.36 2.48L489.36 2.48Q493.76 2.48 500.96 6.08L500.96 6.08L503.44-7.20L503.44-7.20Q499.84-0.56 494.16-0.56L494.16-0.56L494.16-0.56Q483.28-0.56 483.28-11.28L483.28-11.28L483.28-11.28Q483.28-20.24 487.80-25.68L487.80-25.68L487.80-25.68Q492.32-31.12 499.36-31.12L499.36-31.12L499.36-31.12Q503.44-31.12 505.68-28.64L505.68-28.64L505.68-28.64Q506.32-27.92 506.96-26.48L506.96-26.48L507.68-30.40L507.68-30.40Q513.60-30.40 516.32-30.88L516.32-30.88L517.36-31.12L512.08-1.60L512.08-1.60Q510.88 4.64 507.28 8.48L507.28 8.48L507.28 8.48Q508.32 8.72 509.60 8.72zM492.32-8.80L492.32-8.80Q492.32-5.12 493.04-3.88L493.04-3.88L493.04-3.88Q493.76-2.64 495.76-2.64L495.76-2.64L495.76-2.64Q497.76-2.64 499.84-4.80L499.84-4.80L499.84-4.80Q501.92-6.96 502.84-8.84L502.84-8.84L502.84-8.84Q503.76-10.72 504.40-12.48L504.40-12.48L506.08-21.68L506.08-22.24L506.08-22.24Q506.08-29.60 499.36-29.60L499.36-29.60L499.36-29.60Q496.80-29.60 494.56-22.64L494.56-22.64L494.56-22.64Q492.32-15.68 492.32-8.80L492.32-8.80zM491.76 13.12L491.76 13.12L491.76 13.12Q498.16 13.12 500.40 7.60L500.40 7.60L499.28 7.04L499.28 7.04Q498.32 6.56 498.12 6.44L498.12 6.44L498.12 6.44Q497.92 6.32 497.04 5.92L497.04 5.92L497.04 5.92Q496.16 5.52 495.76 5.40L495.76 5.40L495.76 5.40Q495.36 5.28 494.52 4.96L494.52 4.96L494.52 4.96Q493.68 4.64 493.12 4.52L493.12 4.52L493.12 4.52Q492.56 4.40 491.84 4.24L491.84 4.24L491.84 4.24Q490.64 4 488.32 4L488.32 4L488.32 4Q486.00 4 484.60 5.12L484.60 5.12L484.60 5.12Q483.20 6.24 483.20 8.40L483.20 8.40L483.20 8.40Q483.20 10.56 485.52 11.84L485.52 11.84L485.52 11.84Q487.84 13.12 491.76 13.12" fill="#51cacc" stroke="none" stroke-width="none" transform="translate(-353.76007080078125,19.612559234619134)" style="fill: rgb(157, 248, 113);"></path></g><g class="path" style="transform: scale(0.91); transform-origin: 174.84px 4.41256px; animation: 1s linear -0.231s infinite normal forwards running breath-42f780a4-4c1d-46f6-8618-06b5235d5b9e;"><path d="M535.28-2.16L535.28-2.16Q532.88 0.72 529.28 0.72L529.28 0.72L529.28 0.72Q525.68 0.72 523.64-1.12L523.64-1.12L523.64-1.12Q521.60-2.96 521.60-5.92L521.60-5.92L521.60-5.92Q521.60-6.96 522.88-14.64L522.88-14.64L525.52-28.96L522.16-28.96L522.32-30.40L525.76-30.40L525.76-30.40Q531.68-30.40 534.48-30.88L534.48-30.88L535.60-31.12L530.08-0.88L530.08-0.88Q532.48-1.12 534.08-3.12L534.08-3.12L535.28-2.16" fill="#51cacc" stroke="none" stroke-width="none" transform="translate(-353.76007080078125,19.612559234619134)" style="fill: rgb(224, 255, 119);"></path></g><g class="path" style="transform: scale(0.91); transform-origin: 178.6px -23.3074px; animation: 1s linear -0.198s infinite normal forwards running breath-42f780a4-4c1d-46f6-8618-06b5235d5b9e;"><path d="M528.24-38.80L528.24-38.80L528.24-38.80Q526.56-40.48 526.56-42.88L526.56-42.88L526.56-42.88Q526.56-45.28 528.24-47L528.24-47L528.24-47Q529.92-48.72 532.32-48.72L532.32-48.72L532.32-48.72Q534.72-48.72 536.44-47L536.44-47L536.44-47Q538.16-45.28 538.16-42.88L538.16-42.88L538.16-42.88Q538.16-40.48 536.44-38.80L536.44-38.80L536.44-38.80Q534.72-37.12 532.32-37.12L532.32-37.12L532.32-37.12Q529.92-37.12 528.24-38.80" fill="#51cacc" stroke="none" stroke-width="none" transform="translate(-353.76007080078125,19.612559234619134)" style="fill: rgb(222, 157, 214);"></path></g><g class="path" style="transform: scale(0.91); transform-origin: 198.64px -1.50744px; animation: 1s linear -0.165s infinite normal forwards running breath-42f780a4-4c1d-46f6-8618-06b5235d5b9e;"><path d="M540.72-30.40L544.80-30.40L546.96-42.24L546.96-42.24Q552.88-42.24 555.76-42.72L555.76-42.72L556.80-42.96L556.80-42.96Q555.68-37.36 554.32-30.40L554.32-30.40L564.24-30.40L564.08-28.96L554.08-28.96L554.08-28.96Q550.08-8.32 550.08-4.08L550.08-4.08L550.08-4.08Q550.08-1.52 552.80-1.52L552.80-1.52L552.80-1.52Q555.52-1.52 557.76-4.96L557.76-4.96L557.76-4.96Q560.00-8.40 560.96-12.40L560.96-12.40L562.40-11.92L562.40-11.92Q559.44 0.72 550.16 0.72L550.16 0.72L550.16 0.72Q546.32 0.72 543.76-1.40L543.76-1.40L543.76-1.40Q541.20-3.52 541.20-7.32L541.20-7.32L541.20-7.32Q541.20-11.12 544.48-28.96L544.48-28.96L540.56-28.96L540.72-30.40" fill="#51cacc" stroke="none" stroke-width="none" transform="translate(-353.76007080078125,19.612559234619134)" style="fill: rgb(255, 112, 142);"></path></g><g class="path" style="transform: scale(0.91); transform-origin: 229.04px -5.94744px; animation: 1s linear -0.132s infinite normal forwards running breath-42f780a4-4c1d-46f6-8618-06b5235d5b9e;"><path d="M595.60-0.88L595.60-0.88L595.60-0.88Q597.52-0.88 599.60-3.12L599.60-3.12L600.80-2.16L600.80-2.16Q600.24-1.04 598.32-0.16L598.32-0.16L598.32-0.16Q596.40 0.72 594.08 0.72L594.08 0.72L594.08 0.72Q586.80 0.72 586.80-5.84L586.80-5.84L586.80-5.84Q586.80-8.64 588.24-15.84L588.24-15.84L588.24-15.84Q589.68-23.04 589.68-25.28L589.68-25.28L589.68-25.28Q589.68-28.72 586.40-28.72L586.40-28.72L586.40-28.72Q583.68-28.72 581.16-25.04L581.16-25.04L581.16-25.04Q578.64-21.36 577.04-15.04L577.04-15.04L574.40 0L564.80 0L573.68-50.24L573.68-50.24Q571.28-50 569.68-48L569.68-48L568.48-48.96L568.48-48.96Q570.88-51.84 574.52-51.84L574.52-51.84L574.52-51.84Q578.16-51.84 580.16-50L580.16-50L580.16-50Q582.16-48.16 582.16-44.80L582.16-44.80L582.16-44.80Q582.16-44.16 582.00-42.72L582.00-42.72L578.64-23.76L578.64-23.76Q581.92-31.12 588.80-31.12L588.80-31.12L588.80-31.12Q593.52-31.12 596.16-28.44L596.16-28.44L596.16-28.44Q598.80-25.76 598.80-21.04L598.80-21.04L598.80-21.04Q598.80-18.56 597.28-11.48L597.28-11.48L597.28-11.48Q595.76-4.40 595.60-0.88" fill="#51cacc" stroke="none" stroke-width="none" transform="translate(-353.76007080078125,19.612559234619134)" style="fill: rgb(81, 202, 204);"></path></g><g class="path" style="transform: scale(0.91); transform-origin: 268.44px 4.41256px; animation: 1s linear -0.099s infinite normal forwards running breath-42f780a4-4c1d-46f6-8618-06b5235d5b9e;"><path d="M609.52-29.52L609.52-29.52L609.52-29.52Q607.60-29.52 605.52-27.28L605.52-27.28L604.32-28.24L604.32-28.24Q604.88-29.36 606.80-30.24L606.80-30.24L606.80-30.24Q608.72-31.12 611.04-31.12L611.04-31.12L611.04-31.12Q618.32-31.12 618.32-24.56L618.32-24.56L618.32-24.56Q618.32-21.76 616.88-14.56L616.88-14.56L616.88-14.56Q615.44-7.36 615.44-5.12L615.44-5.12L615.44-5.12Q615.44-1.68 618.72-1.68L618.72-1.68L618.72-1.68Q621.04-1.68 623.24-4.40L623.24-4.40L623.24-4.40Q625.44-7.12 627.04-11.92L627.04-11.92L630.40-30.40L630.40-30.40Q636.32-30.40 639.04-30.88L639.04-30.88L640.08-31.12L634.72-0.88L634.72-0.88Q637.12-1.12 638.72-3.12L638.72-3.12L639.92-2.16L639.92-2.16Q637.52 0.72 633.92 0.72L633.92 0.72L633.92 0.72Q630.32 0.72 628.32-1.04L628.32-1.04L628.32-1.04Q626.32-2.80 626.24-6L626.24-6L626.24-6Q622.88 0.72 616.32 0.72L616.32 0.72L616.32 0.72Q611.60 0.72 608.96-1.96L608.96-1.96L608.96-1.96Q606.32-4.64 606.32-9.36L606.32-9.36L606.32-9.36Q606.32-11.84 607.84-18.92L607.84-18.92L607.84-18.92Q609.36-26 609.52-29.52" fill="#51cacc" stroke="none" stroke-width="none" transform="translate(-353.76007080078125,19.612559234619134)" style="fill: rgb(157, 248, 113);"></path></g><g class="path" style="transform: scale(0.91); transform-origin: 306.68px -5.22744px; animation: 1s linear -0.066s infinite normal forwards running breath-42f780a4-4c1d-46f6-8618-06b5235d5b9e;"><path d="M659.04 0.72L659.04 0.72L659.04 0.72Q654.00 0.72 651.68-2.64L651.68-2.64L644.96 2.16L643.44 2.16L652.40-50.24L652.40-50.24Q650.00-50 648.40-48L648.40-48L647.20-48.96L647.20-48.96Q649.60-51.84 653.24-51.84L653.24-51.84L653.24-51.84Q656.88-51.84 658.88-50L658.88-50L658.88-50Q660.88-48.16 660.88-44.80L660.88-44.80L660.88-44.80Q660.88-44.16 660.72-42.72L660.72-42.72L660.72-42.72Q659.44-35.60 657.60-25.60L657.60-25.60L657.60-25.60Q660.96-31.04 666.32-31.04L666.32-31.04L666.32-31.04Q671.68-31.04 674.56-27.96L674.56-27.96L674.56-27.96Q677.44-24.88 677.44-19.52L677.44-19.52L677.44-19.52Q677.44-10.08 672.32-4.68L672.32-4.68L672.32-4.68Q667.20 0.72 659.04 0.72zM658.48-1.44L658.48-1.44L658.48-1.44Q662.88-1.44 665.64-7.56L665.64-7.56L665.64-7.56Q668.40-13.68 668.40-22.80L668.40-22.80L668.40-22.80Q668.40-26.48 667.64-27.84L667.64-27.84L667.64-27.84Q666.88-29.20 664.88-29.20L664.88-29.20L664.88-29.20Q662.88-29.20 660.76-26.80L660.76-26.80L660.76-26.80Q658.64-24.40 657.68-22.28L657.68-22.28L657.68-22.28Q656.72-20.16 656.72-19.84L656.72-19.84L656.56-19.84L656.56-19.84Q654.56-9.36 653.60-4L653.60-4L653.60-4Q654.96-1.44 658.48-1.44" fill="#51cacc" stroke="none" stroke-width="none" transform="translate(-353.76007080078125,19.612559234619134)" style="fill: rgb(224, 255, 119);"></path></g><g class="path" style="transform: scale(0.91); transform-origin: 348.36px 16.2126px; animation: 1s linear -0.033s infinite normal forwards running breath-42f780a4-4c1d-46f6-8618-06b5235d5b9e;"><path d="M699.24-0.52L699.24-0.52L699.24-0.52Q698.08-1.68 698.08-3.36L698.08-3.36L698.08-3.36Q698.08-5.04 699.24-6.24L699.24-6.24L699.24-6.24Q700.40-7.44 702.08-7.44L702.08-7.44L702.08-7.44Q703.76-7.44 704.96-6.24L704.96-6.24L704.96-6.24Q706.16-5.04 706.16-3.36L706.16-3.36L706.16-3.36Q706.16-1.68 704.96-0.52L704.96-0.52L704.96-0.52Q703.76 0.64 702.08 0.64L702.08 0.64L702.08 0.64Q700.40 0.64 699.24-0.52" fill="#51cacc" stroke="none" stroke-width="none" transform="translate(-353.76007080078125,19.612559234619134)" style="fill: rgb(222, 157, 214);"></path></g><g class="path" style="transform: scale(0.91); transform-origin: 353.44px -9.82744px; animation: 1s linear 0s infinite normal forwards running breath-42f780a4-4c1d-46f6-8618-06b5235d5b9e;"><path d="M704.72-9.76L702.56-10L709.52-49.12L711.84-48.80L704.72-9.76" fill="#51cacc" stroke="none" stroke-width="none" transform="translate(-353.76007080078125,19.612559234619134)" style="fill: rgb(255, 112, 142);"></path></g></g>
</g>
</g>
<style id="breath-42f780a4-4c1d-46f6-8618-06b5235d5b9e" data-anikit="">@keyframes breath-42f780a4-4c1d-46f6-8618-06b5235d5b9e
{
  0% {
    animation-timing-function: cubic-bezier(0.9647,0.2413,-0.0705,0.7911);
    transform: scale(0.9099999999999999);
  }
  51% {
    animation-timing-function: cubic-bezier(0.9226,0.2631,-0.0308,0.7628);
    transform: scale(1.02994);
  }
  100% {
    transform: scale(0.9099999999999999);
  }
}</style></svg>