<?xml version="1.0" encoding="utf-8"?>
<svg xmlns="http://www.w3.org/2000/svg" style="margin: auto; display: block; shape-rendering: auto; background: none;" width="280" height="250" preserveAspectRatio="xMidYMid">
<style type="text/css">
  text {
    text-anchor: middle; font-size: 80px; opacity: 0;
  }
</style>
<g style="transform-origin:140px 125px;transform:scale(1)">
<g transform="translate(140,125)">
  <g transform="translate(0,0)"><g class="path" style="transform: scale(0.91); transform-origin: -102.04px 4.7728px; animation: 1s linear -0.565714s infinite normal forwards running breath-42f780a4-4c1d-46f6-8618-06b5235d5b9e;"><path d="M45.44-21.20L45.44-21.20L45.44-21.20Q43.76-22.88 43.76-25.28L43.76-25.28L43.76-25.28Q43.76-27.68 45.44-29.40L45.44-29.40L45.44-29.40Q47.12-31.12 49.24-31.12L49.24-31.12L49.24-31.12Q51.36-31.12 52.84-30.04L52.84-30.04L52.84-30.04Q54.32-28.96 54.96-27.28L54.96-27.28L54.96-27.28Q55.04-27.20 55.04-27.12L55.04-27.12L55.04-27.04L55.04-27.04Q56-24.96 56-21.32L56-21.32L56-21.32Q56-17.68 55.52-15.12L55.52-15.12L55.52-15.12Q55.04-12.56 53.76-9.68L53.76-9.68L53.76-9.68Q52.48-6.80 50.64-4.52L50.64-4.52L50.64-4.52Q48.80-2.24 45.72-0.76L45.72-0.76L45.72-0.76Q42.64 0.72 38.88 0.72L38.88 0.72L38.88 0.72Q32.48 0.72 29.28-3.92L29.28-3.92L29.28-3.92Q25.44 0.72 18.80 0.72L18.80 0.72L18.80 0.72Q13.68 0.72 10.44-2.48L10.44-2.48L10.44-2.48Q7.20-5.68 7.20-9.84L7.20-9.84L7.20-9.84Q7.20-14 8.68-20.12L8.68-20.12L8.68-20.12Q10.16-26.24 10.32-29.52L10.32-29.52L10.32-29.52Q9.04-29.44 7.84-28.60L7.84-28.60L7.84-28.60Q6.64-27.76 6.08-26.96L6.08-26.96L5.52-26.16L4.32-27.12L4.32-27.12Q4.56-27.60 5.04-28.24L5.04-28.24L5.04-28.24Q5.52-28.88 7.48-30L7.48-30L7.48-30Q9.44-31.12 12.40-31.12L12.40-31.12L12.40-31.12Q15.36-31.12 17.16-29.20L17.16-29.20L17.16-29.20Q18.96-27.28 18.96-24.32L18.96-24.32L18.96-24.32Q18.96-21.36 17.36-15.16L17.36-15.16L17.36-15.16Q15.76-8.96 15.76-6.44L15.76-6.44L15.76-6.44Q15.76-3.92 16.92-2.48L16.92-2.48L16.92-2.48Q18.08-1.04 20.24-1.04L20.24-1.04L20.24-1.04Q24.88-1.04 28.16-5.84L28.16-5.84L28.16-5.84Q27.28-8.08 27.28-11.04L27.28-11.04L27.28-11.04Q27.28-14 28.76-20.12L28.76-20.12L28.76-20.12Q30.24-26.24 30.40-29.52L30.40-29.52L30.40-29.52Q29.12-29.44 27.92-28.60L27.92-28.60L27.92-28.60Q26.72-27.76 26.16-26.96L26.16-26.96L25.60-26.16L24.40-27.12L24.40-27.12Q24.64-27.60 25.12-28.24L25.12-28.24L25.12-28.24Q25.60-28.88 27.56-30L27.56-30L27.56-30Q29.52-31.12 32.48-31.12L32.48-31.12L32.48-31.12Q35.44-31.12 37.24-29.20L37.24-29.20L37.24-29.20Q39.04-27.28 39.04-24.32L39.04-24.32L39.04-24.32Q39.04-21.36 37.44-15.16L37.44-15.16L37.44-15.16Q35.84-8.96 35.84-6.44L35.84-6.44L35.84-6.44Q35.84-3.92 37-2.48L37-2.48L37-2.48Q38.16-1.04 40.32-1.04L40.32-1.04L40.32-1.04Q45.68-1.04 49.92-6.84L49.92-6.84L49.92-6.84Q54.16-12.64 54.16-19.92L54.16-19.92L54.16-19.92Q54.16-20.48 54-21.60L54-21.60L54-21.60Q52.32-19.52 49.72-19.52L49.72-19.52L49.72-19.52Q47.12-19.52 45.44-21.20" fill="#51cacc" stroke="none" stroke-width="none" transform="translate(-132.20001220703125,19.972799072265627)" style="fill: rgb(81, 202, 204);"></path></g><g class="path" style="transform: scale(0.91); transform-origin: -58.6px 4.7728px; animation: 1s linear -0.471429s infinite normal forwards running breath-42f780a4-4c1d-46f6-8618-06b5235d5b9e;"><path d="M77.12-31.12L77.12-31.12L77.12-31.12Q87.28-31.12 87.28-23.04L87.28-23.04L87.28-23.04Q87.28-18 82.52-15.40L82.52-15.40L82.52-15.40Q77.76-12.80 68.96-12.72L68.96-12.72L68.96-12.72Q68.80-9.84 68.80-8.16L68.80-8.16L68.80-8.16Q68.80-4.56 70.44-2.84L70.44-2.84L70.44-2.84Q72.08-1.12 74.56-1.12L74.56-1.12L74.56-1.12Q77.04-1.12 79.08-2.08L79.08-2.08L79.08-2.08Q81.12-3.04 82.32-4.36L82.32-4.36L82.32-4.36Q83.52-5.68 84.40-7.12L84.40-7.12L84.40-7.12Q86-9.76 86-10.48L86-10.48L87.44-9.84L87.44-9.84Q87.20-8.56 86-6.44L86-6.44L86-6.44Q84.80-4.32 83.36-2.96L83.36-2.96L83.36-2.96Q81.92-1.60 79.12-0.44L79.12-0.44L79.12-0.44Q76.32 0.72 72.88 0.72L72.88 0.72L72.88 0.72Q66.40 0.72 63.08-2.36L63.08-2.36L63.08-2.36Q59.76-5.44 59.76-10.80L59.76-10.80L59.76-10.80Q59.76-20.32 64.48-25.72L64.48-25.72L64.48-25.72Q69.20-31.12 77.12-31.12zM85.28-23.04L85.28-23.04Q85.28-25.68 83.72-27.40L83.72-27.40L83.72-27.40Q82.16-29.12 79.08-29.12L79.08-29.12L79.08-29.12Q76-29.12 73.08-25.44L73.08-25.44L73.08-25.44Q70.16-21.76 69.20-14.56L69.20-14.56L69.20-14.56Q85.28-14.64 85.28-23.04L85.28-23.04" fill="#51cacc" stroke="none" stroke-width="none" transform="translate(-132.20001220703125,19.972799072265627)" style="fill: rgb(157, 248, 113);"></path></g><g class="path" style="transform: scale(0.91); transform-origin: -29.04px -5.5872px; animation: 1s linear -0.377143s infinite normal forwards running breath-42f780a4-4c1d-46f6-8618-06b5235d5b9e;"><path d="M106.24-2.88L106.24-2.88L106.24-2.88Q105.20-1.52 103.40-0.40L103.40-0.40L103.40-0.40Q101.60 0.72 98.72 0.72L98.72 0.72L98.72 0.72Q95.84 0.72 93.84-1.12L93.84-1.12L93.84-1.12Q91.84-2.96 91.84-6.32L91.84-6.32L91.84-6.32Q91.84-6.96 92.00-8.40L92.00-8.40L97.20-37.20L97.20-37.20Q98.64-45.12 101.16-48.48L101.16-48.48L101.16-48.48Q103.68-51.84 107.84-51.84L107.84-51.84L107.84-51.84Q110.72-51.84 112.60-49.68L112.60-49.68L112.60-49.68Q114.48-47.52 114.48-43.12L114.48-43.12L114.48-43.12Q114.48-38.72 111.08-30.56L111.08-30.56L111.08-30.56Q107.68-22.40 107.68-18.64L107.68-18.64L106.24-18.64L106.24-18.64Q106.24-22.88 109.60-30.76L109.60-30.76L109.60-30.76Q112.96-38.64 112.96-43.36L112.96-43.36L112.96-43.36Q112.96-46.24 111.64-48.32L111.64-48.32L111.64-48.32Q110.32-50.40 108.40-50.40L108.40-50.40L108.40-50.40Q108.32-48.32 105.64-31.72L105.64-31.72L105.64-31.72Q102.96-15.12 100.32-0.88L100.32-0.88L100.32-0.88Q102.56-0.88 104.48-3.20L104.48-3.20L104.48-3.20Q106.40-5.52 107.20-7.84L107.20-7.84L108.08-10.24L109.52-9.60L109.52-9.60Q109.28-8.48 108.28-6.36L108.28-6.36L108.28-6.36Q107.28-4.24 106.24-2.88" fill="#51cacc" stroke="none" stroke-width="none" transform="translate(-132.20001220703125,19.972799072265627)" style="fill: rgb(224, 255, 119);"></path></g><g class="path" style="transform: scale(0.91); transform-origin: -3.88001px 4.7728px; animation: 1s linear -0.282857s infinite normal forwards running breath-42f780a4-4c1d-46f6-8618-06b5235d5b9e;"><path d="M133.12-16.72L133.12-16.72L133.12-16.72Q131.44-18.40 131.44-20.80L131.44-20.80L131.44-20.80Q131.44-23.20 133.12-24.92L133.12-24.92L133.12-24.92Q134.80-26.64 137.20-26.64L137.20-26.64L137.20-26.64Q137.92-26.64 139.04-26.32L139.04-26.32L139.04-26.32Q137.52-29.12 133.36-29.12L133.36-29.12L133.36-29.12Q129.20-29.12 126-23.84L126-23.84L126-23.84Q122.80-18.56 122.80-8.16L122.80-8.16L122.80-8.16Q122.80-4.56 124.44-2.84L124.44-2.84L124.44-2.84Q126.08-1.12 128.56-1.12L128.56-1.12L128.56-1.12Q131.04-1.12 133.08-2.08L133.08-2.08L133.08-2.08Q135.12-3.04 136.32-4.36L136.32-4.36L136.32-4.36Q137.52-5.68 138.40-7.12L138.40-7.12L138.40-7.12Q140-9.76 140-10.48L140-10.48L141.44-9.84L141.44-9.84Q141.20-8.56 140-6.44L140-6.44L140-6.44Q138.80-4.32 137.36-2.96L137.36-2.96L137.36-2.96Q135.92-1.60 133.12-0.44L133.12-0.44L133.12-0.44Q130.32 0.72 126.88 0.72L126.88 0.72L126.88 0.72Q120.40 0.72 117.08-2.36L117.08-2.36L117.08-2.36Q113.76-5.44 113.76-10.80L113.76-10.80L113.76-10.80Q113.76-20.32 118.52-25.72L118.52-25.72L118.52-25.72Q123.28-31.12 131.44-31.12L131.44-31.12L131.44-31.12Q136.96-31.12 139.92-28.32L139.92-28.32L139.92-28.32Q142.88-25.52 142.88-20.96L142.88-20.96L142.88-20.96Q142.88-18.08 141.16-16.56L141.16-16.56L141.16-16.56Q139.44-15.04 137.12-15.04L137.12-15.04L137.12-15.04Q134.80-15.04 133.12-16.72" fill="#51cacc" stroke="none" stroke-width="none" transform="translate(-132.20001220703125,19.972799072265627)" style="fill: rgb(222, 157, 214);"></path></g><g class="path" style="transform: scale(0.91); transform-origin: 29.72px 4.7728px; animation: 1s linear -0.188571s infinite normal forwards running breath-42f780a4-4c1d-46f6-8618-06b5235d5b9e;"><path d="M158.80 0.72L158.80 0.72Q152.64 0.72 149.44-2.36L149.44-2.36L149.44-2.36Q146.24-5.44 146.24-10.12L146.24-10.12L146.24-10.12Q146.24-14.80 147.08-18.12L147.08-18.12L147.08-18.12Q147.92-21.44 149.84-24.52L149.84-24.52L149.84-24.52Q151.76-27.60 155.64-29.36L155.64-29.36L155.64-29.36Q159.52-31.12 165.32-31.12L165.32-31.12L165.32-31.12Q171.12-31.12 174.36-28.04L174.36-28.04L174.36-28.04Q177.60-24.96 177.60-19.60L177.60-19.60L177.60-19.60Q177.60-10.48 172.76-4.88L172.76-4.88L172.76-4.88Q167.92 0.72 158.80 0.72L158.80 0.72zM155.28-7.52L155.28-7.52L155.28-7.52Q155.28-1.12 159-1.12L159-1.12L159-1.12Q162.72-1.12 165.64-7.56L165.64-7.56L165.64-7.56Q168.56-14 168.56-22.88L168.56-22.88L168.56-22.88Q168.56-29.60 164.92-29.60L164.92-29.60L164.92-29.60Q161.28-29.60 158.28-23.48L158.28-23.48L158.28-23.48Q155.28-17.36 155.28-7.52" fill="#51cacc" stroke="none" stroke-width="none" transform="translate(-132.20001220703125,19.972799072265627)" style="fill: rgb(255, 112, 142);"></path></g><g class="path" style="transform: scale(0.91); transform-origin: 77.48px 4.7728px; animation: 1s linear -0.0942857s infinite normal forwards running breath-42f780a4-4c1d-46f6-8618-06b5235d5b9e;"><path d="M212-0.88L212-0.88L212-0.88Q213.92-0.88 216-3.12L216-3.12L217.20-2.16L217.20-2.16Q216.64-1.04 214.72-0.16L214.72-0.16L214.72-0.16Q212.80 0.72 210.48 0.72L210.48 0.72L210.48 0.72Q203.20 0.72 203.20-5.84L203.20-5.84L203.20-5.84Q203.20-8.64 204.64-15.84L204.64-15.84L204.64-15.84Q206.08-23.04 206.08-25.28L206.08-25.28L206.08-25.28Q206.08-28.72 202.80-28.72L202.80-28.72L202.80-28.72Q197.84-28.72 194.48-16L194.48-16L191.60 0L182 0L187.28-29.52L187.28-29.52Q184.88-29.28 183.28-27.28L183.28-27.28L182.08-28.24L182.08-28.24Q184.48-31.12 188.12-31.12L188.12-31.12L188.12-31.12Q191.76-31.12 193.76-29.28L193.76-29.28L193.76-29.28Q195.76-27.44 195.76-24.08L195.76-24.08L195.76-23.84L195.76-23.84Q198.88-31.12 205.20-31.12L205.20-31.12L205.20-31.12Q209.68-31.12 212.28-28.68L212.28-28.68L212.28-28.68Q214.88-26.24 215.12-21.84L215.12-21.84L215.12-21.84Q216.64-26.24 218.96-28.68L218.96-28.68L218.96-28.68Q221.28-31.12 225.68-31.12L225.68-31.12L225.68-31.12Q230.08-31.12 232.72-28.44L232.72-28.44L232.72-28.44Q235.36-25.76 235.36-21.04L235.36-21.04L235.36-21.04Q235.36-18.56 233.84-11.48L233.84-11.48L233.84-11.48Q232.32-4.40 232.16-0.88L232.16-0.88L232.16-0.88Q234.08-0.88 236.16-3.12L236.16-3.12L237.36-2.16L237.36-2.16Q236.80-1.04 234.88-0.16L234.88-0.16L234.88-0.16Q232.96 0.72 230.64 0.72L230.64 0.72L230.64 0.72Q223.36 0.72 223.36-5.84L223.36-5.84L223.36-5.84Q223.36-8.64 224.80-15.84L224.80-15.84L224.80-15.84Q226.24-23.04 226.24-25.28L226.24-25.28L226.24-25.28Q226.24-28.72 222.96-28.72L222.96-28.72L222.96-28.72Q217.20-28.72 213.68-11.60L213.68-11.60L213.68-11.60Q212.16-4.32 212-0.88" fill="#51cacc" stroke="none" stroke-width="none" transform="translate(-132.20001220703125,19.972799072265627)" style="fill: rgb(81, 202, 204);"></path></g><g class="path" style="transform: scale(0.91); transform-origin: 122.68px 4.7728px; animation: 1s linear 0s infinite normal forwards running breath-42f780a4-4c1d-46f6-8618-06b5235d5b9e;"><path d="M258.40-31.12L258.40-31.12L258.40-31.12Q268.56-31.12 268.56-23.04L268.56-23.04L268.56-23.04Q268.56-18 263.80-15.40L263.80-15.40L263.80-15.40Q259.04-12.80 250.24-12.72L250.24-12.72L250.24-12.72Q250.08-9.84 250.08-8.16L250.08-8.16L250.08-8.16Q250.08-4.56 251.72-2.84L251.72-2.84L251.72-2.84Q253.36-1.12 255.84-1.12L255.84-1.12L255.84-1.12Q258.32-1.12 260.36-2.08L260.36-2.08L260.36-2.08Q262.40-3.04 263.60-4.36L263.60-4.36L263.60-4.36Q264.80-5.68 265.68-7.12L265.68-7.12L265.68-7.12Q267.28-9.76 267.28-10.48L267.28-10.48L268.72-9.84L268.72-9.84Q268.48-8.56 267.28-6.44L267.28-6.44L267.28-6.44Q266.08-4.32 264.64-2.96L264.64-2.96L264.64-2.96Q263.20-1.60 260.40-0.44L260.40-0.44L260.40-0.44Q257.60 0.72 254.16 0.72L254.16 0.72L254.16 0.72Q247.68 0.72 244.36-2.36L244.36-2.36L244.36-2.36Q241.04-5.44 241.04-10.80L241.04-10.80L241.04-10.80Q241.04-20.32 245.76-25.72L245.76-25.72L245.76-25.72Q250.48-31.12 258.40-31.12zM266.56-23.04L266.56-23.04Q266.56-25.68 265-27.40L265-27.40L265-27.40Q263.44-29.12 260.36-29.12L260.36-29.12L260.36-29.12Q257.28-29.12 254.36-25.44L254.36-25.44L254.36-25.44Q251.44-21.76 250.48-14.56L250.48-14.56L250.48-14.56Q266.56-14.64 266.56-23.04L266.56-23.04" fill="#51cacc" stroke="none" stroke-width="none" transform="translate(-132.20001220703125,19.972799072265627)" style="fill: rgb(157, 248, 113);"></path></g></g>
</g>
</g>
<style id="breath-42f780a4-4c1d-46f6-8618-06b5235d5b9e" data-anikit="">@keyframes breath-42f780a4-4c1d-46f6-8618-06b5235d5b9e
{
  0% {
    animation-timing-function: cubic-bezier(0.9647,0.2413,-0.0705,0.7911);
    transform: scale(0.9099999999999999);
  }
  51% {
    animation-timing-function: cubic-bezier(0.9226,0.2631,-0.0308,0.7628);
    transform: scale(1.02994);
  }
  100% {
    transform: scale(0.9099999999999999);
  }
}</style></svg>